<svg width="55" height="53" viewBox="0 0 55 53" fill="none" xmlns="http://www.w3.org/2000/svg">
<path d="M29.6361 52.9999C43.5788 52.9999 54.8816 41.6971 54.8816 27.7544C54.8816 13.8116 43.5788 2.50879 29.6361 2.50879C15.6933 2.50879 4.39053 13.8116 4.39053 27.7544C4.39053 41.6971 15.6933 52.9999 29.6361 52.9999Z" fill="url(#paint0_radial_355_19)"/>
<path d="M29.6361 52.9999C43.5788 52.9999 54.8816 41.6971 54.8816 27.7544C54.8816 13.8116 43.5788 2.50879 29.6361 2.50879C15.6933 2.50879 4.39053 13.8116 4.39053 27.7544C4.39053 41.6971 15.6933 52.9999 29.6361 52.9999Z" fill="url(#paint1_radial_355_19)"/>
<path opacity="0.711" d="M14.3136 36.7533C19.0955 36.7533 22.972 32.8768 22.972 28.0949C22.972 23.313 19.0955 19.4365 14.3136 19.4365C9.53173 19.4365 5.65523 23.313 5.65523 28.0949C5.65523 32.8768 9.53173 36.7533 14.3136 36.7533Z" fill="url(#paint2_radial_355_19)"/>
<path opacity="0.711" d="M41.0671 28.484C45.849 28.484 49.7255 24.6075 49.7255 19.8256C49.7255 15.0437 45.849 11.1672 41.0671 11.1672C36.2852 11.1672 32.4087 15.0437 32.4087 19.8256C32.4087 24.6075 36.2852 28.484 41.0671 28.484Z" fill="url(#paint3_radial_355_19)"/>
<circle cx="11.9172" cy="26.9703" r="3.76331" fill="#F79567"/>
<circle cx="36.0651" cy="19.4437" r="3.76331" fill="#F79567"/>
<path d="M12.5068 11.4796C15.595 11.4796 18.2358 13.6773 18.8496 16.6942C18.9776 17.3233 18.5764 17.938 17.9535 18.0672C17.3369 18.1952 16.7342 17.7994 16.5981 17.1811L16.5941 17.1623C16.1994 15.2218 14.497 13.8051 12.5068 13.8051C10.2022 13.8051 8.3343 15.6898 8.3343 18.014C8.3343 18.469 8.4055 18.9129 8.54347 19.3345L8.55749 19.3766C8.76344 19.9841 8.44272 20.6453 7.84115 20.8533C7.23959 21.0613 6.58496 20.7374 6.37901 20.1298C6.14993 19.454 6.0317 18.7413 6.0317 18.014C6.0317 14.4049 8.93096 11.4796 12.5068 11.4796ZM30.991 5.93433C34.0792 5.93433 36.7201 8.13201 37.3338 11.149C37.4618 11.778 37.0606 12.3927 36.4378 12.522C35.8212 12.6499 35.2185 12.2541 35.0823 11.6358L35.0783 11.617C34.6836 9.67658 32.9812 8.25988 30.991 8.25988C28.6864 8.25988 26.8185 10.1445 26.8185 12.4687C26.8185 12.9238 26.8897 13.3676 27.0277 13.7892L27.0417 13.8313C27.2477 14.4389 26.9269 15.1 26.3254 15.308C25.7238 15.516 25.0692 15.1921 24.8632 14.5845C24.6342 13.9087 24.5159 13.1961 24.5159 12.4687C24.5159 8.85961 27.4152 5.93433 30.991 5.93433ZM32.5621 20.9891C32.8914 20.4461 33.6072 20.2678 34.1607 20.5909C34.7143 20.9139 34.8961 21.6159 34.5667 22.1588C32.1258 26.183 28.482 28.7357 24.0542 29.4045C21.0659 29.8559 17.9203 29.4076 14.6336 28.0775C14.0381 27.8365 13.7546 27.1677 14.0003 26.5837C14.246 25.9997 14.9278 25.7216 15.5232 25.9626C18.4333 27.1403 21.1532 27.5279 23.6992 27.1433C27.4147 26.5821 30.4664 24.4442 32.5621 20.9891Z" fill="#251C0C"/>
<path fill-rule="evenodd" clip-rule="evenodd" d="M25.2456 48.6095C38.1491 48.6095 48.6095 38.1491 48.6095 25.2456C48.6095 12.342 38.1491 1.88166 25.2456 1.88166C12.342 1.88166 1.88166 12.342 1.88166 25.2456C1.88166 38.1491 12.342 48.6095 25.2456 48.6095ZM50.4911 25.2456C50.4911 39.1883 39.1883 50.4911 25.2456 50.4911C11.3028 50.4911 0 39.1883 0 25.2456C0 11.3028 11.3028 0 25.2456 0C39.1883 0 50.4911 11.3028 50.4911 25.2456Z" fill="black"/>
<defs>
<radialGradient id="paint0_radial_355_19" cx="0" cy="0" r="1" gradientUnits="userSpaceOnUse" gradientTransform="translate(2528.95 931.546) scale(3013.11)">
<stop stop-color="#FDE990"/>
<stop offset="1" stop-color="#FACE57"/>
</radialGradient>
<radialGradient id="paint1_radial_355_19" cx="0" cy="0" r="1" gradientUnits="userSpaceOnUse" gradientTransform="translate(2503.42 -2521.95) rotate(-90) scale(2833.56 3018.37)">
<stop stop-color="#D27C12" stop-opacity="0.186"/>
<stop offset="0.82343" stop-color="#D27C12" stop-opacity="0"/>
<stop offset="1" stop-color="#D27C12" stop-opacity="0.176"/>
</radialGradient>
<radialGradient id="paint2_radial_355_19" cx="0" cy="0" r="1" gradientUnits="userSpaceOnUse" gradientTransform="translate(871.495 885.277) scale(865.84)">
<stop stop-color="#F6756A"/>
<stop offset="1" stop-color="#F66F6A" stop-opacity="0"/>
</radialGradient>
<radialGradient id="paint3_radial_355_19" cx="0" cy="0" r="1" gradientUnits="userSpaceOnUse" gradientTransform="translate(898.249 877.007) scale(865.84)">
<stop stop-color="#F6756A"/>
<stop offset="1" stop-color="#F66F6A" stop-opacity="0"/>
</radialGradient>
</defs>
</svg>
