<svg width="18" height="18" viewBox="0 0 18 18" fill="none" xmlns="http://www.w3.org/2000/svg">
<path d="M16 0C16.5304 0 17.0391 0.210714 17.4142 0.585786C17.7893 0.960859 18 1.46957 18 2V16C18 17.11 17.1 18 16 18H2C1.46957 18 0.960859 17.7893 0.585786 17.4142C0.210714 17.0391 0 16.5304 0 16V2C0 1.46957 0.210714 0.960859 0.585786 0.585786C0.960859 0.210714 1.46957 0 2 0H16ZM12.58 14L11.63 9.92L14.79 7.19L10.62 6.83L9 3L7.38 6.84L3.21 7.2L6.37 9.93L5.42 14L9 11.84L12.58 14Z" fill="#A2A2A2"/>
</svg>
