<svg width="66" height="66" viewBox="0 0 66 66" fill="none" xmlns="http://www.w3.org/2000/svg">
<path d="M18.9744 50.3321C28.8338 58.0779 43.1057 56.3644 50.8514 46.505C58.5972 36.6455 56.8837 22.3737 47.0242 14.6279C37.1648 6.88215 22.8929 8.59563 15.1472 18.4551C7.40142 28.3145 9.11491 42.5864 18.9744 50.3321Z" fill="url(#paint0_radial_2314_64)"/>
<path d="M18.9744 50.3321C28.8338 58.0779 43.1057 56.3644 50.8514 46.505C58.5972 36.6455 56.8837 22.3737 47.0242 14.6279C37.1648 6.88215 22.8929 8.59563 15.1472 18.4551C7.40142 28.3145 9.11491 42.5864 18.9744 50.3321Z" fill="url(#paint1_radial_2314_64)"/>
<path d="M18.9744 50.3321C28.8338 58.0779 43.1057 56.3644 50.8514 46.505C58.5972 36.6455 56.8837 22.3737 47.0242 14.6279C37.1648 6.88215 22.8929 8.59563 15.1472 18.4551C7.40142 28.3145 9.11491 42.5864 18.9744 50.3321Z" fill="url(#paint2_linear_2314_64)"/>
<path fill-rule="evenodd" clip-rule="evenodd" d="M19.2984 49.4256C28.6166 56.7461 42.105 55.1267 49.4255 45.8085C56.7461 36.4903 55.1266 23.0019 45.8084 15.6814C36.4902 8.36082 23.0019 9.98024 15.6813 19.2984C8.36077 28.6166 9.98019 42.105 19.2984 49.4256ZM50.7843 46.876C42.8742 56.9447 28.2995 58.6945 18.2309 50.7844C8.16221 42.8743 6.41237 28.2996 14.3225 18.2309C22.2326 8.16226 36.8073 6.41242 46.8759 14.3225C56.9446 22.2327 58.6945 36.8073 50.7843 46.876Z" fill="black"/>
<path d="M24 28C24 29.6569 22.6569 31 21 31C19.3431 31 18 29.6569 18 28C18 26.3431 19.3431 25 21 25C22.6569 25 24 26.3431 24 28Z" fill="#F79567"/>
<path d="M46 28C46 29.6569 44.6569 31 43 31C41.3431 31 40 29.6569 40 28C40 26.3431 41.3431 25 43 25C44.6569 25 46 26.3431 46 28Z" fill="#F79567"/>
<path d="M29.3608 22.5715C29.6089 19.814 27.8995 17.2404 25.2387 16.4452C22.1577 15.5244 18.9064 17.2983 17.977 20.4079C17.7898 21.0346 17.7081 21.6791 17.7315 22.3203C17.7524 22.8968 18.2331 23.3445 18.8049 23.3202C19.3768 23.2959 19.8234 22.8088 19.8024 22.2323L19.8012 22.1924C19.7909 21.7936 19.8438 21.3929 19.961 21.0008C20.5595 18.9983 22.6541 17.8554 24.6398 18.4489C26.3546 18.9614 27.4565 20.6204 27.297 22.3939L27.2956 22.4112C27.2537 22.9789 27.671 23.4752 28.2352 23.5237C28.8052 23.5728 29.3091 23.1464 29.3608 22.5715Z" fill="black"/>
<path d="M46.7149 22.5535C46.9629 19.796 45.2535 17.2224 42.5927 16.4272C39.5117 15.5064 36.2604 17.2803 35.3311 20.3899C35.1438 21.0166 35.0621 21.6611 35.0855 22.3023C35.1065 22.8788 35.5871 23.3265 36.159 23.3022C36.7308 23.2779 37.1774 22.7908 37.1564 22.2143L37.1552 22.1744C37.1449 21.7756 37.1978 21.3749 37.315 20.9828C37.9135 18.9803 40.0082 17.8374 41.9939 18.4309C43.7086 18.9434 44.8106 20.6024 44.651 22.3759L44.6496 22.3932C44.6077 22.9609 45.0251 23.4572 45.5893 23.5057C46.1592 23.5548 46.6631 23.1284 46.7149 22.5535Z" fill="black"/>
<path d="M41.5496 29.8716C41.1558 29.4507 40.4932 29.42 40.0696 29.803C37.3742 32.2403 34.1944 33.2965 30.8485 32.8233C28.5559 32.499 26.3122 31.4646 24.1082 29.7005C23.6572 29.3396 22.9981 29.4036 22.6361 29.8435C22.274 30.2835 22.3461 30.9327 22.797 31.2937C25.2864 33.2861 27.8812 34.4824 30.5722 34.863C34.5594 35.4269 38.3563 34.1658 41.4956 31.3271C41.9192 30.9441 41.9433 30.2924 41.5496 29.8716Z" fill="black"/>
<defs>
<radialGradient id="paint0_radial_2314_64" cx="0" cy="0" r="1" gradientUnits="userSpaceOnUse" gradientTransform="translate(3198.77 -396.231) rotate(-51.8462) scale(2548.11 2714.3)">
<stop stop-color="#D27C12" stop-opacity="0.186"/>
<stop offset="0.82343" stop-color="#D27C12" stop-opacity="0"/>
<stop offset="1" stop-color="#D27C12" stop-opacity="0.176"/>
</radialGradient>
<radialGradient id="paint1_radial_2314_64" cx="0" cy="0" r="1" gradientUnits="userSpaceOnUse" gradientTransform="translate(1298.27 2060.05) rotate(38.1538) scale(2709.57)">
<stop stop-color="#FDE990"/>
<stop offset="1" stop-color="#FACE57"/>
</radialGradient>
<linearGradient id="paint2_linear_2314_64" x1="32.7859" y1="3.64142" x2="32.7859" y2="61.1414" gradientUnits="userSpaceOnUse">
<stop offset="0.68" stop-color="white" stop-opacity="0"/>
<stop offset="0.875" stop-color="white"/>
</linearGradient>
</defs>
</svg>
