<svg width="99" height="116" viewBox="0 0 99 116" fill="none" xmlns="http://www.w3.org/2000/svg">
<path d="M75.2133 115.262C109.337 115.262 137 87.5282 137 53.3165C137 19.1047 109.337 -8.62939 75.2133 -8.62939C41.0895 -8.62939 13.4268 19.1047 13.4268 53.3165C13.4268 87.5282 41.0895 115.262 75.2133 115.262Z" fill="url(#paint0_radial_2491_117)"/>
<path opacity="0.711" d="M35.0321 76.1837C46.7354 76.1837 56.2228 66.6718 56.2228 54.9383C56.2228 43.2048 46.7354 33.6929 35.0321 33.6929C23.3287 33.6929 13.8413 43.2048 13.8413 54.9383C13.8413 66.6718 23.3287 76.1837 35.0321 76.1837Z" fill="url(#paint1_radial_2491_117)"/>
<path opacity="0.711" d="M100.509 55.8927C112.212 55.8927 121.699 46.3808 121.699 34.6473C121.699 22.9137 112.212 13.4019 100.509 13.4019C88.8053 13.4019 79.3179 22.9137 79.3179 34.6473C79.3179 46.3808 88.8053 55.8927 100.509 55.8927Z" fill="url(#paint2_radial_2491_117)"/>
<ellipse cx="29.167" cy="52.1775" rx="9.21042" ry="9.23417" fill="#F79567"/>
<ellipse cx="88.2661" cy="33.7093" rx="9.21042" ry="9.23417" fill="#F79567"/>
<path d="M30.6091 14.1676C38.1672 14.1676 44.6304 19.5602 46.1325 26.963C46.4457 28.5065 45.4639 30.0148 43.9395 30.332C42.4304 30.6459 40.9554 29.6747 40.6221 28.1576L40.6124 28.1114C39.6463 23.3501 35.4798 19.8739 30.6091 19.8739C24.9686 19.8739 20.3972 24.4983 20.3972 30.2013C20.3972 31.3179 20.5714 32.4069 20.9091 33.4414L20.9434 33.5447C21.4474 35.0355 20.6625 36.6578 19.1902 37.1682C17.7179 37.6785 16.1158 36.8838 15.6117 35.393C15.0511 33.7347 14.7617 31.986 14.7617 30.2013C14.7617 21.3455 21.8574 14.1676 30.6091 14.1676ZM75.8478 0.561035C83.4059 0.561035 89.8691 5.95357 91.3712 13.3564C91.6844 14.8999 90.7026 16.4082 89.1782 16.7254C87.6691 17.0393 86.1941 16.0681 85.8608 14.5509L85.8511 14.5048C84.885 9.74353 80.7185 6.26731 75.8478 6.26731C70.2073 6.26731 65.6359 10.8917 65.6359 16.5947C65.6359 17.7113 65.8101 18.8003 66.1478 19.8348L66.1821 19.9381C66.6861 21.4289 65.9012 23.0512 64.4289 23.5616C62.9566 24.0719 61.3545 23.2772 60.8504 21.7864C60.2898 20.1281 60.0004 18.3794 60.0004 16.5947C60.0004 7.73891 67.0961 0.561035 75.8478 0.561035ZM79.6928 37.5014C80.4989 36.1691 82.2506 35.7316 83.6054 36.5243C84.9602 37.3169 85.405 39.0394 84.599 40.3717C78.6251 50.2459 69.7072 56.5096 58.8704 58.1507C51.5568 59.2583 43.8582 58.1582 35.8141 54.8944C34.3569 54.3031 33.6629 52.6621 34.2642 51.2291C34.8655 49.7961 36.5343 49.1137 37.9915 49.705C45.1137 52.5947 51.7705 53.5459 58.0015 52.6023C67.0949 51.2252 74.5636 45.9794 79.6928 37.5014Z" fill="#251C0C"/>
<path fill-rule="evenodd" clip-rule="evenodd" d="M61.7865 105.275C93.3669 105.275 118.968 79.6077 118.968 47.9459C118.968 16.2841 93.3669 -9.38292 61.7865 -9.38292C30.2062 -9.38292 4.60521 16.2841 4.60521 47.9459C4.60521 79.6077 30.2062 105.275 61.7865 105.275ZM123.573 47.9459C123.573 82.1576 95.9103 109.892 61.7865 109.892C27.6628 109.892 0 82.1576 0 47.9459C0 13.7341 27.6628 -14 61.7865 -14C95.9103 -14 123.573 13.7341 123.573 47.9459Z" fill="black"/>
<defs>
<radialGradient id="paint0_radial_2491_117" cx="0" cy="0" r="1" gradientUnits="userSpaceOnUse" gradientTransform="translate(6192.08 2270.98) scale(7374.35 7393.36)">
<stop stop-color="#FDE990"/>
<stop offset="1" stop-color="#FACE57"/>
</radialGradient>
<radialGradient id="paint1_radial_2491_117" cx="0" cy="0" r="1" gradientUnits="userSpaceOnUse" gradientTransform="translate(2132.92 2158.23) scale(2119.08 2124.54)">
<stop stop-color="#F6756A"/>
<stop offset="1" stop-color="#F66F6A" stop-opacity="0"/>
</radialGradient>
<radialGradient id="paint2_radial_2491_117" cx="0" cy="0" r="1" gradientUnits="userSpaceOnUse" gradientTransform="translate(2198.39 2137.94) scale(2119.08 2124.54)">
<stop stop-color="#F6756A"/>
<stop offset="1" stop-color="#F66F6A" stop-opacity="0"/>
</radialGradient>
</defs>
</svg>
