<svg width="297" height="207" viewBox="0 0 297 207" fill="none" xmlns="http://www.w3.org/2000/svg">
<path d="M95.176 29V6.28H104.424C109.256 6.28 112.488 9.192 112.488 13.544C112.488 17.864 109.256 20.776 104.552 20.776H99.784V29H95.176ZM99.784 17.128H103.784C106.152 17.128 107.816 15.656 107.816 13.544C107.816 11.4 106.184 9.928 103.784 9.928H99.784V17.128ZM115.355 29V5.32H119.547V15.144H119.579C120.603 13.288 122.363 12.232 124.635 12.232C127.675 12.232 129.467 14.152 129.467 17.512V29H125.307V18.312C125.307 16.648 124.379 15.656 122.875 15.656C120.859 15.656 119.547 17.032 119.547 19.304V29H115.355ZM138.676 36.264C135.54 36.264 132.788 35.048 131.22 32.968L133.396 30.152C134.548 31.752 136.34 32.712 138.356 32.712C141.14 32.712 142.836 31.016 142.836 28.136V26.952H142.804C141.876 28.744 140.18 29.832 138.292 29.832C134.9 29.832 132.82 27.496 132.82 23.752V12.68H137.012V23.304C137.012 25.128 138.004 26.344 139.668 26.344C141.492 26.344 142.772 25.032 142.772 23.016V12.68H146.932L146.964 28.328C146.964 33.288 143.796 36.264 138.676 36.264ZM157.165 29.512C153.101 29.512 149.965 27.496 149.837 23.784L153.613 23.176C153.709 25.288 155.213 26.472 157.293 26.472C158.989 26.472 160.269 25.736 160.269 24.584C160.237 23.592 159.373 23.016 157.357 22.504L155.021 21.896C151.917 21.096 150.573 19.688 150.605 17.256C150.605 14.152 153.165 12.136 156.781 12.136C160.205 12.136 162.925 13.96 163.181 17.128L159.437 17.736C159.341 16.04 158.221 15.144 156.653 15.144C155.277 15.144 154.349 15.912 154.349 16.904C154.317 17.832 155.117 18.408 156.973 18.952L159.309 19.56C162.669 20.456 164.173 21.864 164.173 24.232C164.173 27.432 161.229 29.512 157.165 29.512ZM169.315 10.152C167.779 10.152 166.723 9.128 166.723 7.592C166.723 6.088 167.779 5.064 169.315 5.064C170.883 5.064 171.939 6.088 171.939 7.592C171.939 9.128 170.883 10.152 169.315 10.152ZM167.203 29V12.68H171.395V29H167.203ZM186.27 35.72V26.568H186.238C185.246 28.424 183.518 29.48 181.342 29.48C177.342 29.48 174.718 26.12 174.718 20.84C174.718 15.528 177.342 12.2 181.342 12.2C183.55 12.2 185.406 13.256 186.366 15.208H186.398L186.878 12.68H190.462V35.72H186.27ZM182.654 25.8C184.958 25.8 186.43 23.848 186.43 20.84C186.43 17.832 184.958 15.88 182.654 15.88C180.382 15.88 178.878 17.8 178.878 20.84C178.878 23.848 180.382 25.8 182.654 25.8ZM198.905 29.448C195.865 29.448 194.009 27.496 194.009 24.168V12.68H198.169V23.368C198.169 25.032 199.097 26.024 200.601 26.024C202.617 26.024 203.929 24.616 203.929 22.376V12.68H208.121V29H204.601L204.057 26.536H204.025C203.001 28.392 201.177 29.448 198.905 29.448ZM219.73 29.544C214.578 29.544 211.218 26.056 211.218 20.68C211.218 15.496 214.258 12.136 218.994 12.136C223.57 12.136 226.482 15.4 226.482 20.52C226.482 21.128 226.45 21.736 226.354 22.056H215.378C215.602 24.68 217.266 26.312 219.73 26.312C221.554 26.312 222.994 25.384 223.602 23.784L226.833 25.064C225.938 27.848 223.122 29.544 219.73 29.544ZM215.378 19.336H222.258C222.13 16.808 220.946 15.368 218.994 15.368C216.882 15.368 215.666 16.872 215.378 19.336ZM240.558 24.52V19.112H235.918V15.688H240.558V10.44H244.622V15.688H249.262V19.112H244.622V24.52H240.558ZM261.877 29V24.264H252.149V21.608L260.501 6.28H266.261V20.808H268.725V24.264H266.261V29H261.877ZM256.565 20.808H261.877V10.952H261.813L256.565 20.808Z" fill="#4CAF50"/>
<path d="M155.423 151.813C153.069 151.821 151.524 150.187 151.516 147.679C151.507 145.171 153.042 143.527 155.396 143.519C157.739 143.511 159.284 145.145 159.292 147.653C159.301 150.15 157.766 151.805 155.423 151.813ZM155.419 150.438C156.805 150.433 157.703 149.33 157.697 147.658C157.692 145.986 156.786 144.889 155.4 144.894C154.014 144.899 153.116 146.002 153.122 147.674C153.127 149.346 154.033 150.443 155.419 150.438ZM160.445 153.864L160.418 145.944L161.65 145.94L161.818 146.809L161.829 146.808C162.157 146.136 162.794 145.771 163.553 145.769C164.928 145.764 165.833 146.905 165.84 148.731C165.846 150.546 164.948 151.704 163.573 151.709C162.825 151.711 162.229 151.35 161.886 150.713L161.875 150.713L161.886 153.859L160.445 153.864ZM163.117 150.445C163.898 150.443 164.413 149.77 164.41 148.736C164.406 147.691 163.887 147.033 163.106 147.035C162.314 147.038 161.81 147.711 161.814 148.745C161.817 149.779 162.325 150.448 163.117 150.445ZM169.184 151.701C168.018 151.705 167.333 151.014 167.33 149.914L167.32 147.021L166.352 147.024L166.348 145.924L167.316 145.921L167.311 144.403L168.74 144.079L168.746 145.916L170.649 145.91L170.653 147.01L168.75 147.016L168.759 149.656C168.761 150.195 169.015 150.513 169.444 150.512C169.851 150.51 170.158 150.267 170.288 149.673L170.983 150.43C170.766 151.233 170.086 151.698 169.184 151.701ZM172.572 145.034C172.044 145.036 171.68 144.685 171.678 144.157C171.676 143.64 172.038 143.287 172.566 143.285C173.105 143.283 173.469 143.634 173.471 144.151C173.473 144.679 173.111 145.032 172.572 145.034ZM171.868 151.516L171.849 145.906L173.29 145.901L173.309 151.511L171.868 151.516ZM174.638 151.506L174.619 145.896L175.796 145.892L175.975 146.794L175.986 146.794C176.292 146.122 176.94 145.724 177.721 145.721C178.524 145.718 179.097 146.112 179.352 146.815L179.363 146.815C179.757 146.088 180.438 145.712 181.197 145.709C182.275 145.706 182.915 146.418 182.919 147.628L182.932 151.478L181.491 151.483L181.49 147.842C181.488 147.281 181.157 146.941 180.596 146.943C179.903 146.946 179.498 147.475 179.5 148.289L179.5 151.49L178.07 151.495L178.058 147.854C178.056 147.293 177.725 146.953 177.164 146.955C176.471 146.957 176.066 147.487 176.068 148.301L176.079 151.502L174.638 151.506ZM184.915 144.993C184.387 144.994 184.023 144.644 184.021 144.116C184.019 143.599 184.381 143.245 184.909 143.244C185.448 143.242 185.812 143.593 185.814 144.11C185.816 144.638 185.454 144.991 184.915 144.993ZM184.211 151.474L184.192 145.864L185.633 145.859L185.652 151.469L184.211 151.474ZM189.236 151.633C187.839 151.638 186.759 150.949 186.711 149.673L188.008 149.459C188.043 150.185 188.562 150.59 189.277 150.588C189.86 150.586 190.299 150.332 190.298 149.936C190.286 149.595 189.988 149.398 189.294 149.224L188.491 149.018C187.423 148.746 186.959 148.264 186.967 147.428C186.964 146.361 187.841 145.665 189.084 145.661C190.261 145.657 191.198 146.281 191.29 147.369L190.004 147.583C189.969 147 189.583 146.693 189.044 146.695C188.571 146.696 188.253 146.961 188.254 147.302C188.244 147.621 188.52 147.819 189.158 148.003L189.962 148.21C191.118 148.514 191.637 148.996 191.639 149.81C191.643 150.91 190.633 151.628 189.236 151.633ZM192.631 151.446L192.612 145.836L193.789 145.832L193.968 146.733L193.979 146.733C194.285 146.061 194.933 145.663 195.714 145.66C196.517 145.658 197.09 146.052 197.345 146.755L197.356 146.755C197.75 146.027 198.431 145.651 199.19 145.649C200.268 145.645 200.908 146.358 200.912 147.568L200.925 151.418L199.484 151.423L199.483 147.782C199.481 147.221 199.15 146.881 198.589 146.883C197.896 146.885 197.491 147.414 197.493 148.228L197.493 151.429L196.063 151.434L196.051 147.793C196.049 147.232 195.718 146.892 195.157 146.894C194.464 146.897 194.059 147.426 194.061 148.24L194.072 151.441L192.631 151.446ZM204.888 151.591C203.117 151.597 201.958 150.402 201.952 148.554C201.946 146.772 202.987 145.614 204.615 145.608C206.188 145.603 207.193 146.722 207.199 148.482C207.2 148.691 207.189 148.9 207.157 149.01L203.384 149.022C203.464 149.924 204.038 150.483 204.885 150.48C205.512 150.478 206.005 150.158 206.213 149.607L207.325 150.043C207.02 151.001 206.054 151.588 204.888 151.591ZM203.38 148.088L205.745 148.08C205.699 147.211 205.29 146.717 204.619 146.719C203.893 146.722 203.477 147.24 203.38 148.088ZM212.042 149.84L212.036 147.981L210.441 147.987L210.437 146.81L212.032 146.804L212.026 145L213.423 144.996L213.429 146.8L215.024 146.794L215.028 147.971L213.433 147.977L213.439 149.836L212.042 149.84ZM219.069 151.577C217.386 151.582 216.238 150.508 216.178 148.935L217.683 148.6C217.709 149.623 218.239 150.281 219.042 150.279C219.735 150.276 220.196 149.802 220.193 149.076C220.191 148.306 219.683 147.813 219.034 147.782L218.616 147.761L218.613 146.837L219.074 146.814C219.591 146.779 219.898 146.349 219.896 145.711C219.894 145.04 219.54 144.601 219.012 144.603C218.407 144.605 218.002 145.189 217.994 146.08L216.431 145.866C216.481 144.38 217.501 143.332 219.019 143.327C220.438 143.322 221.398 144.21 221.402 145.508C221.405 146.311 221.044 146.928 220.407 147.227L220.407 147.249C221.288 147.565 221.797 148.3 221.789 149.224C221.793 150.621 220.697 151.571 219.069 151.577Z" fill="#4CAF50"/>
<path d="M71.4025 183.585L75.0442 172.212L77.9402 172.203L81.6745 183.55L79.2905 183.558L78.5625 181.177L74.4825 181.19L73.7705 183.577L71.4025 183.585ZM74.8926 179.429L78.1405 179.418L76.5389 174.175L76.5069 174.175L74.8926 179.429ZM84.957 183.763C83.437 183.768 82.5057 182.795 82.5001 181.131L82.4807 175.387L84.5607 175.38L84.5787 180.724C84.5815 181.556 85.0472 182.051 85.7992 182.048C86.8072 182.045 87.4608 181.339 87.457 180.219L87.4407 175.371L89.5367 175.364L89.5642 183.523L87.8042 183.529L87.528 182.298L87.512 182.298C87.0032 183.228 86.093 183.759 84.957 183.763ZM94.8411 183.762C93.1451 183.767 92.1498 182.763 92.1444 181.163L92.1302 176.955L90.7222 176.96L90.7168 175.36L92.1248 175.355L92.1174 173.147L94.1958 172.676L94.2048 175.348L96.9728 175.338L96.9782 176.938L94.2102 176.948L94.2231 180.788C94.2258 181.572 94.5953 182.035 95.2193 182.032C95.8113 182.03 96.2581 181.677 96.4472 180.812L97.4589 181.913C97.1429 183.082 96.1531 183.757 94.8411 183.762ZM102.333 183.752C99.8847 183.761 98.2949 182.054 98.286 179.398C98.2771 176.758 99.8553 175.057 102.303 175.049C104.751 175.04 106.341 176.731 106.35 179.371C106.359 182.027 104.781 183.744 102.333 183.752ZM102.327 181.96C103.511 181.956 104.275 180.962 104.27 179.378C104.265 177.81 103.493 176.837 102.309 176.841C101.109 176.845 100.361 177.823 100.366 179.391C100.371 180.975 101.127 181.965 102.327 181.96ZM110.956 183.691C108.956 183.698 107.639 182.023 107.63 179.383C107.621 176.727 108.927 175.058 110.927 175.051C112.015 175.048 112.881 175.573 113.38 176.499L113.396 176.499L113.38 171.603L115.476 171.596L115.515 183.436L113.723 183.442L113.479 182.179L113.463 182.179C112.986 183.157 112.06 183.688 110.956 183.691ZM111.606 181.849C112.758 181.845 113.491 180.867 113.486 179.363C113.481 177.859 112.741 176.885 111.589 176.889C110.453 176.893 109.705 177.872 109.71 179.376C109.715 180.896 110.47 181.853 111.606 181.849ZM118.442 174.002C117.674 174.005 117.144 173.495 117.141 172.727C117.139 171.975 117.665 171.461 118.433 171.458C119.217 171.456 119.747 171.966 119.749 172.718C119.752 173.486 119.226 173.999 118.442 174.002ZM117.417 183.43L117.39 175.27L119.486 175.263L119.513 183.423L117.417 183.43ZM124.727 183.661C122.695 183.668 121.124 182.665 121.054 180.809L122.941 180.499C122.992 181.555 123.746 182.144 124.786 182.141C125.634 182.138 126.273 181.768 126.271 181.192C126.253 180.696 125.821 180.409 124.812 180.157L123.643 179.857C122.089 179.462 121.415 178.76 121.427 177.544C121.422 175.992 122.698 174.98 124.506 174.974C126.218 174.968 127.581 175.875 127.715 177.459L125.844 177.769C125.793 176.921 125.231 176.475 124.447 176.478C123.759 176.48 123.297 176.866 123.298 177.362C123.284 177.826 123.685 178.112 124.614 178.381L125.783 178.681C127.464 179.124 128.219 179.825 128.223 181.009C128.228 182.609 126.759 183.654 124.727 183.661ZM133.346 183.648C130.93 183.656 129.373 181.965 129.38 179.309C129.371 176.653 130.853 174.952 133.109 174.945C134.933 174.939 136.265 176.054 136.623 177.845L134.688 178.315C134.477 177.26 133.867 176.67 133.131 176.673C132.123 176.676 131.454 177.67 131.46 179.302C131.465 180.934 132.236 181.924 133.356 181.92C134.316 181.917 135.018 181.178 135.19 179.946L137.127 180.291C136.846 182.324 135.378 183.641 133.346 183.648ZM139.66 173.931C138.892 173.933 138.362 173.423 138.36 172.655C138.357 171.903 138.884 171.389 139.652 171.387C140.436 171.384 140.965 171.894 140.968 172.646C140.97 173.414 140.444 173.928 139.66 173.931ZM138.636 183.358L138.608 175.198L140.704 175.191L140.732 183.351L138.636 183.358ZM142.677 186.705L142.638 175.185L144.43 175.179L144.674 176.442L144.69 176.442C145.167 175.464 146.093 174.933 147.197 174.929C149.197 174.923 150.515 176.582 150.523 179.238C150.532 181.878 149.226 183.562 147.226 183.569C146.138 183.573 145.272 183.048 144.773 182.121L144.757 182.122L144.773 186.698L142.677 186.705ZM146.564 181.731C147.7 181.728 148.449 180.749 148.443 179.245C148.438 177.725 147.683 176.768 146.547 176.771C145.395 176.775 144.662 177.754 144.667 179.258C144.673 180.762 145.412 181.735 146.564 181.731ZM152.087 183.313L152.047 171.473L154.143 171.466L154.183 183.306L152.087 183.313ZM157.113 173.872C156.345 173.874 155.815 173.364 155.813 172.596C155.81 171.844 156.337 171.33 157.105 171.328C157.889 171.325 158.418 171.835 158.421 172.587C158.423 173.355 157.897 173.869 157.113 173.872ZM156.089 183.299L156.061 175.139L158.157 175.132L158.185 183.292L156.089 183.299ZM164.698 174.886C166.218 174.881 167.149 175.854 167.155 177.518L167.174 183.262L165.094 183.269L165.076 177.925C165.073 177.093 164.608 176.599 163.856 176.601C162.848 176.605 162.194 177.311 162.198 178.431L162.214 183.279L160.118 183.286L160.091 175.126L161.851 175.12L162.127 176.351L162.143 176.351C162.652 175.421 163.562 174.89 164.698 174.886ZM172.931 183.515C170.355 183.523 168.669 181.785 168.66 179.097C168.652 176.505 170.166 174.82 172.534 174.812C174.822 174.804 176.283 176.431 176.292 178.991C176.293 179.295 176.278 179.599 176.231 179.759L170.743 179.778C170.859 181.09 171.694 181.903 172.926 181.899C173.838 181.896 174.556 181.429 174.858 180.628L176.476 181.263C176.032 182.656 174.627 183.509 172.931 183.515ZM170.738 178.418L174.178 178.406C174.11 177.143 173.515 176.425 172.539 176.428C171.483 176.431 170.878 177.185 170.738 178.418ZM183.337 180.968L183.328 178.264L181.008 178.271L181.002 176.559L183.322 176.552L183.313 173.928L185.345 173.921L185.354 176.545L187.674 176.537L187.68 178.249L185.36 178.257L185.369 180.961L183.337 180.968ZM188.909 183.189L188.903 181.317L191.287 181.309L191.264 174.701L191.248 174.701C190.946 175.214 190.403 175.616 189.668 175.906L188.942 173.973C190.189 173.6 191.05 172.83 191.431 171.82L193.543 171.813L193.575 181.301L195.495 181.295L195.501 183.167L188.909 183.189Z" fill="#4CAF50"/>
<path d="M0.402533 57.5847L4.04424 46.2123L6.94022 46.2026L10.6745 57.5501L8.29049 57.5581L7.56246 55.1765L3.48248 55.1903L2.77052 57.5767L0.402533 57.5847ZM3.89255 53.4289L7.14053 53.4179L5.53886 48.1753L5.50686 48.1754L3.89255 53.4289ZM11.9312 57.5458L11.9037 49.3859L13.6157 49.3801L13.8761 50.6912L13.8921 50.6912C14.3368 49.7137 15.2789 49.1345 16.4149 49.1307C17.5829 49.1267 18.4168 49.6999 18.7883 50.7227L18.8043 50.7226C19.3767 49.6647 20.3669 49.1174 21.4709 49.1136C23.0389 49.1084 23.9704 50.1452 23.9763 51.9052L23.9952 57.5052L21.8992 57.5122L21.8973 52.2162C21.8946 51.4002 21.4129 50.9058 20.5969 50.9086C19.5889 50.912 18.9995 51.682 19.0035 52.866L19.0032 57.522L16.9232 57.529L16.9053 52.233C16.9026 51.417 16.4209 50.9227 15.6049 50.9254C14.5969 50.9288 14.0075 51.6988 14.0115 52.8828L14.0272 57.5388L11.9312 57.5458ZM29.5358 57.7585C27.0878 57.7668 25.498 56.0601 25.4891 53.4041C25.4802 50.7641 27.0585 49.0628 29.5065 49.0546C31.9544 49.0463 33.5442 50.737 33.553 53.377C33.562 56.0329 31.9838 57.7503 29.5358 57.7585ZM29.5297 55.9665C30.7137 55.9625 31.4784 54.968 31.4731 53.384C31.4678 51.816 30.6965 50.8426 29.5125 50.8466C28.3125 50.8506 27.5638 51.8291 27.5691 53.3971C27.5744 54.9811 28.3298 55.9706 29.5297 55.9665ZM37.5037 57.6837C35.9837 57.6888 35.0524 56.7159 35.0468 55.0519L35.0275 49.308L37.1075 49.301L37.1255 54.6449C37.1283 55.4769 37.5939 55.9714 38.3459 55.9688C39.3539 55.9654 40.0075 55.2592 40.0038 54.1392L39.9874 49.2913L42.0834 49.2842L42.1109 57.4442L40.3509 57.4501L40.0748 56.219L40.0588 56.2191C39.5499 57.1488 38.6397 57.6798 37.5037 57.6837ZM47.9347 49.0245C49.2787 49.02 50.1141 50.0251 50.184 51.7689L48.4257 52.2708C48.3742 51.231 47.9722 50.6564 47.3322 50.6585C46.5002 50.6613 46.0072 51.543 46.0123 53.047L46.027 57.431L43.931 57.438L43.9035 49.2781L45.5995 49.2723L45.8601 50.6315L45.8761 50.6314C46.2407 49.6222 47.0067 49.0276 47.9347 49.0245ZM57.009 55.1539L56.9999 52.45L54.6799 52.4578L54.6742 50.7458L56.9942 50.738L56.9853 48.114L59.0173 48.1071L59.0262 50.7311L61.3461 50.7233L61.3519 52.4353L59.0319 52.4431L59.041 55.1471L57.009 55.1539ZM63.3753 57.3725C63.6839 53.9955 64.6812 50.8081 66.7834 47.905L62.0315 47.921L62.025 46.017L69.065 45.9933L69.0707 47.6893C67.0649 50.704 66.1476 53.9071 65.8873 57.364L63.3753 57.3725Z" fill="#4CAF50"/>
<path d="M79.482 95.1791C75.522 95.1924 72.9521 92.2411 72.9367 87.6811C72.9213 83.1011 75.5913 80.1321 79.7313 80.1182C82.5113 80.1088 84.777 81.8012 85.5658 84.4185L82.848 85.0677C82.3429 83.5694 81.1397 82.6134 79.6997 82.6183C77.3597 82.6262 75.8463 84.5913 75.8566 87.6312C75.8669 90.7112 77.5537 92.7056 80.1137 92.6969C82.4136 92.6892 83.9884 91.1439 84.0405 88.7837L78.5205 88.8023L78.5137 86.7623L86.8536 86.7342L86.8806 94.7341L84.6806 94.7416L84.4328 92.4224L84.4128 92.4224C83.4185 94.1258 81.582 95.172 79.482 95.1791ZM94.0606 95.05C90.8406 95.0608 88.7333 92.8879 88.7219 89.5279C88.711 86.2879 90.6039 84.1815 93.5639 84.1716C96.4239 84.1619 98.2508 86.1958 98.2615 89.3958C98.2628 89.7758 98.2441 90.1558 98.1848 90.356L91.3248 90.3792C91.4703 92.0187 92.5138 93.0352 94.0538 93.03C95.1938 93.0261 96.0918 92.4431 96.4684 91.4418L98.4911 92.235C97.937 93.9769 96.1806 95.0428 94.0606 95.05ZM91.3191 88.6792L95.6191 88.6647C95.5337 87.085 94.7907 86.1875 93.5707 86.1916C92.2507 86.196 91.4939 87.1386 91.3191 88.6792ZM104.45 94.995C101.91 95.0035 99.9458 93.7501 99.8579 91.4304L102.217 91.0425C102.281 92.3623 103.224 93.0991 104.524 93.0947C105.584 93.0911 106.382 92.6284 106.38 91.9084C106.357 91.2885 105.816 90.9303 104.555 90.6146L103.094 90.2395C101.152 89.746 100.309 88.8689 100.324 87.3488C100.318 85.4088 101.913 84.1434 104.173 84.1358C106.313 84.1286 108.017 85.2629 108.184 87.2423L105.845 87.6302C105.782 86.5704 105.08 86.0128 104.1 86.0161C103.24 86.019 102.661 86.5009 102.663 87.1209C102.645 87.701 103.147 88.0593 104.308 88.3954L105.769 88.7705C107.871 89.3234 108.814 90.2002 108.819 91.6802C108.826 93.6802 106.99 94.9864 104.45 94.995ZM114.592 94.9608C112.472 94.9679 111.228 93.7121 111.221 91.7121L111.203 86.4522L109.443 86.4581L109.436 84.4581L111.196 84.4522L111.187 81.6922L113.785 81.1034L113.796 84.4434L117.256 84.4318L117.263 86.4317L113.803 86.4434L113.819 91.2434C113.823 92.2234 114.285 92.8018 115.065 92.7992C115.805 92.7967 116.363 92.3548 116.599 91.274L117.864 92.6498C117.469 94.1111 116.232 94.9553 114.592 94.9608ZM120.753 82.84C119.793 82.8432 119.13 82.2054 119.127 81.2454C119.124 80.3054 119.782 79.6632 120.742 79.66C121.722 79.6567 122.384 80.2945 122.387 81.2344C122.39 82.1944 121.733 82.8367 120.753 82.84ZM119.472 94.6243L119.438 84.4244L122.058 84.4156L122.092 94.6155L119.472 94.6243ZM129.21 94.9315C126.15 94.9419 124.163 92.8085 124.152 89.4886C124.141 86.1886 126.113 84.0619 129.173 84.0516C132.233 84.0413 134.221 86.1546 134.232 89.4546C134.243 92.7746 132.27 94.9212 129.21 94.9315ZM129.203 92.6916C130.683 92.6866 131.638 91.4433 131.632 89.4634C131.625 87.5034 130.661 86.2866 129.181 86.2916C127.681 86.2966 126.745 87.5198 126.752 89.4798C126.758 91.4598 127.703 92.6966 129.203 92.6916ZM141.894 84.0687C143.794 84.0623 144.958 85.2784 144.965 87.3584L144.989 94.5384L142.389 94.5471L142.366 87.8672C142.363 86.8272 141.781 86.2091 140.841 86.2123C139.581 86.2166 138.764 87.0993 138.769 88.4993L138.789 94.5593L136.169 94.5681L136.135 84.3682L138.335 84.3607L138.68 85.8996L138.7 85.8995C139.336 84.7374 140.474 84.0735 141.894 84.0687ZM155.517 94.8029C153.017 94.8113 151.37 92.7169 151.359 89.4169C151.347 86.0969 152.98 84.0114 155.48 84.003C156.84 83.9984 157.923 84.6548 158.547 85.8127L158.567 85.8126L158.546 79.6926L161.166 79.6838L161.216 94.4837L158.976 94.4913L158.67 92.9123L158.65 92.9123C158.055 94.1344 156.897 94.7983 155.517 94.8029ZM156.329 92.5002C157.769 92.4953 158.685 91.2722 158.679 89.3922C158.672 87.5122 157.748 86.2953 156.308 86.3002C154.888 86.305 153.952 87.5281 153.959 89.4081C153.965 91.3081 154.909 92.5049 156.329 92.5002ZM166.494 94.7459C164.594 94.7523 163.43 93.5362 163.423 91.4563L163.399 84.2763L165.999 84.2675L166.021 90.9475C166.025 91.9875 166.607 92.6055 167.547 92.6024C168.807 92.5981 169.624 91.7154 169.619 90.3154L169.599 84.2554L172.219 84.2466L172.253 94.4465L170.053 94.4539L169.708 92.9151L169.688 92.9152C169.052 94.0773 167.914 94.7411 166.494 94.7459ZM183.141 94.7298C180.601 94.7384 178.637 93.485 178.549 91.1653L180.908 90.7773C180.972 92.0971 181.915 92.834 183.215 92.8296C184.275 92.826 185.073 92.3633 185.071 91.6433C185.048 91.0234 184.507 90.6652 183.246 90.3495L181.785 89.9744C179.843 89.4809 179 88.6038 179.015 87.0837C179.009 85.1437 180.604 83.8783 182.864 83.8707C185.004 83.8635 186.708 84.9978 186.875 86.9772L184.536 87.3651C184.473 86.3053 183.771 85.7477 182.791 85.751C181.931 85.7539 181.352 86.2358 181.354 86.8558C181.336 87.4359 181.838 87.7942 182.999 88.1303L184.46 88.5054C186.562 89.0583 187.505 89.9351 187.51 91.4151C187.517 93.4151 185.681 94.7213 183.141 94.7298ZM193.283 94.6957C191.163 94.7028 189.919 93.447 189.912 91.447L189.894 86.187L188.134 86.193L188.127 84.193L189.887 84.1871L189.878 81.4271L192.476 80.8383L192.487 84.1783L195.947 84.1666L195.954 86.1666L192.494 86.1783L192.51 90.9783C192.514 91.9583 192.975 92.5367 193.755 92.5341C194.495 92.5316 195.054 92.0897 195.29 91.0089L196.555 92.3846C196.16 93.846 194.923 94.6902 193.283 94.6957ZM203.068 83.8427C204.748 83.837 205.792 85.0935 205.879 87.2732L203.681 87.9006C203.617 86.6008 203.115 85.8825 202.315 85.8852C201.275 85.8887 200.658 86.9908 200.665 88.8708L200.683 94.3507L198.063 94.3596L198.029 84.1596L200.149 84.1525L200.475 85.8514L200.495 85.8513C200.95 84.5898 201.908 83.8466 203.068 83.8427ZM212.536 94.6508C209.316 94.6617 207.209 92.4887 207.198 89.1288C207.187 85.8888 209.08 83.7824 212.04 83.7724C214.9 83.7628 216.727 85.7966 216.737 88.9966C216.739 89.3766 216.72 89.7567 216.661 89.9569L209.801 89.98C209.946 91.6195 210.99 92.636 212.53 92.6308C213.67 92.627 214.568 92.044 214.944 91.0427L216.967 91.8359C216.413 93.5777 214.656 94.6437 212.536 94.6508ZM209.795 88.28L214.095 88.2655C214.01 86.6858 213.267 85.7883 212.047 85.7924C210.727 85.7969 209.97 86.7394 209.795 88.28ZM222.926 94.5958C220.386 94.6044 218.422 93.351 218.334 91.0313L220.693 90.6433C220.757 91.9631 221.699 92.6999 222.999 92.6956C224.059 92.692 224.858 92.2293 224.855 91.5093C224.833 90.8894 224.292 90.5312 223.031 90.2154L221.57 89.8404C219.628 89.3469 218.785 88.4697 218.8 86.9497C218.794 85.0097 220.389 83.7443 222.649 83.7367C224.789 83.7295 226.493 84.8637 226.66 86.8432L224.321 87.2311C224.257 86.1713 223.556 85.6136 222.576 85.6169C221.716 85.6198 221.137 86.1018 221.139 86.7218C221.121 87.3018 221.622 87.6602 222.784 87.9963L224.245 88.3713C226.347 88.9243 227.29 89.8011 227.295 91.2811C227.301 93.2811 225.466 94.5873 222.926 94.5958ZM233.199 94.5612C230.659 94.5698 228.695 93.3164 228.607 90.9966L230.966 90.6087C231.03 91.9285 231.973 92.6653 233.273 92.6609C234.333 92.6574 235.131 92.1947 235.129 91.4747C235.107 90.8548 234.566 90.4966 233.304 90.1808L231.843 89.8057C229.902 89.3123 229.059 88.4351 229.073 86.9151C229.067 84.9751 230.663 83.7097 232.923 83.7021C235.063 83.6949 236.766 84.8291 236.933 86.8086L234.594 87.1965C234.531 86.1367 233.829 85.579 232.849 85.5823C231.989 85.5852 231.411 86.0672 231.413 86.6872C231.395 87.2672 231.896 87.6256 233.057 87.9616L234.518 88.3367C236.62 88.8896 237.563 89.7665 237.568 91.2465C237.575 93.2465 235.739 94.5526 233.199 94.5612ZM243.185 89.8675L243.178 87.9075L249.398 87.8866L249.405 89.8466L243.185 89.8675ZM250.927 94.1815L250.919 91.8415L253.899 91.8314L253.871 83.5715L253.851 83.5716C253.473 84.2128 252.795 84.7151 251.876 85.0782L250.968 82.6613C252.526 82.196 253.603 81.2324 254.079 79.9708L256.719 79.9619L256.759 91.8218L259.159 91.8137L259.166 94.1537L250.927 94.1815Z" fill="#6F6F6F"/>
<path d="M4.06716 129.861L4.03128 119.211L8.36626 119.196C10.6312 119.189 12.1508 120.548 12.1577 122.588C12.1645 124.613 10.6541 125.984 8.44915 125.991L6.21416 125.998L6.22715 129.853L4.06716 129.861ZM6.2084 124.288L8.08339 124.282C9.19338 124.278 9.97105 123.586 9.96772 122.596C9.96433 121.591 9.19701 120.903 8.07202 120.907L6.19703 120.914L6.2084 124.288ZM17.2796 121.941C18.5396 121.937 19.3228 122.879 19.3883 124.514L17.7398 124.985C17.6915 124.01 17.3147 123.471 16.7147 123.473C15.9347 123.476 15.4725 124.302 15.4773 125.712L15.4911 129.822L13.5261 129.829L13.5004 122.179L15.0903 122.174L15.3346 123.448L15.3496 123.448C15.6915 122.502 16.4096 121.944 17.2796 121.941ZM24.1711 130.048C21.8761 130.056 20.3857 128.456 20.3773 125.966C20.369 123.491 21.8486 121.896 24.1436 121.888C26.4386 121.88 27.9289 123.465 27.9373 125.94C27.9456 128.43 26.4661 130.04 24.1711 130.048ZM24.1654 128.368C25.2754 128.364 25.9923 127.432 25.9873 125.947C25.9823 124.477 25.2592 123.564 24.1492 123.568C23.0242 123.572 22.3223 124.489 22.3273 125.959C22.3323 127.444 23.0404 128.372 24.1654 128.368ZM32.8558 130.019C30.5908 130.026 29.1305 128.441 29.1371 125.951C29.1287 123.461 30.5183 121.867 32.6333 121.859C34.3433 121.854 35.5918 122.899 35.9275 124.578L34.114 125.019C33.9156 124.03 33.3438 123.477 32.6538 123.479C31.7088 123.483 31.0819 124.415 31.0871 125.945C31.0922 127.475 31.8153 128.402 32.8653 128.399C33.7653 128.396 34.423 127.703 34.5841 126.548L36.4002 126.872C36.1366 128.778 34.7608 130.012 32.8558 130.019ZM41.4933 121.86C42.7533 121.855 43.5365 122.798 43.602 124.433L41.9536 124.903C41.9053 123.928 41.5285 123.389 40.9285 123.392C40.1485 123.394 39.6863 124.221 39.691 125.631L39.7048 129.741L37.7399 129.747L37.7141 122.097L39.3041 122.092L39.5484 123.366L39.5634 123.366C39.9052 122.42 40.6233 121.863 41.4933 121.86ZM47.0471 129.896C45.5921 129.901 44.5693 129.064 44.5647 127.714C44.5601 126.349 45.6219 125.401 47.6162 125.184L48.8308 125.045C49.1907 125.014 49.4598 124.773 49.4584 124.353C49.4563 123.708 48.8849 123.305 48.1199 123.307C47.1899 123.31 46.5923 124.017 46.565 124.828L44.7636 124.414C44.8187 122.958 46.1499 121.814 48.1298 121.807C50.1098 121.801 51.3587 122.936 51.3644 124.646L51.3815 129.701L49.6415 129.707L49.4279 128.643L49.4129 128.643C48.9356 129.44 48.0971 129.892 47.0471 129.896ZM47.7621 128.409C48.7221 128.405 49.4247 127.683 49.4211 126.618L49.4197 126.228L48.0703 126.382C47.0057 126.506 46.5271 126.943 46.5291 127.513C46.531 128.083 47.0421 128.411 47.7621 128.409ZM56.1085 129.925C54.2035 129.932 52.7304 128.992 52.6645 127.252L54.4335 126.961C54.4819 127.951 55.1887 128.504 56.1637 128.5C56.9587 128.498 57.5576 128.151 57.5557 127.611C57.5392 127.146 57.1333 126.877 56.1875 126.64L55.0915 126.359C53.6353 125.989 53.003 125.331 53.0142 124.191C53.0093 122.736 54.2061 121.787 55.9011 121.781C57.5061 121.776 58.784 122.626 58.909 124.111L57.1549 124.402C57.1073 123.607 56.5808 123.189 55.8458 123.191C55.2008 123.193 54.7671 123.555 54.7686 124.02C54.7551 124.455 55.131 124.724 56.0019 124.976L57.0978 125.257C58.6742 125.672 59.3814 126.329 59.3852 127.439C59.3902 128.939 58.0135 129.919 56.1085 129.925ZM63.7149 129.9C62.1249 129.905 61.1917 128.963 61.1867 127.463L61.1734 123.518L59.8534 123.523L59.8483 122.023L61.1683 122.018L61.1614 119.948L63.1099 119.507L63.1183 122.012L65.7133 122.003L65.7184 123.503L63.1234 123.512L63.1355 127.112C63.138 127.847 63.4844 128.281 64.0694 128.279C64.6244 128.277 65.0433 127.945 65.2206 127.135L66.1691 128.167C65.8728 129.263 64.9449 129.896 63.7149 129.9ZM68.3355 120.809C67.6155 120.812 67.1189 120.333 67.1164 119.613C67.1141 118.908 67.6074 118.427 68.3274 118.424C69.0624 118.422 69.559 118.9 69.5614 119.605C69.5638 120.325 69.0705 120.807 68.3355 120.809ZM67.3752 129.647L67.3495 121.997L69.3145 121.991L69.3402 129.641L67.3752 129.647ZM75.4463 121.76C76.8712 121.755 77.7443 122.667 77.7496 124.227L77.7677 129.612L75.8177 129.619L75.8009 124.609C75.7982 123.829 75.3617 123.366 74.6567 123.368C73.7117 123.371 73.0989 124.033 73.1024 125.083L73.1177 129.628L71.1528 129.635L71.127 121.985L72.777 121.979L73.0359 123.133L73.0509 123.133C73.5279 122.262 74.3813 121.764 75.4463 121.76ZM81.5147 129.78C80.0597 129.785 79.0369 128.948 79.0323 127.598C79.0277 126.233 80.0895 125.285 82.0838 125.068L83.2983 124.929C83.6582 124.898 83.9274 124.657 83.926 124.237C83.9238 123.592 83.3525 123.189 82.5875 123.191C81.6575 123.194 81.0599 123.901 81.0326 124.711L79.2312 124.297C79.2863 122.842 80.6174 121.698 82.5974 121.691C84.5774 121.684 85.8262 122.82 85.832 124.53L85.849 129.585L84.1091 129.591L83.8955 128.527L83.8805 128.527C83.4031 129.323 82.5647 129.776 81.5147 129.78ZM82.2297 128.292C83.1897 128.289 83.8922 127.567 83.8886 126.502L83.8873 126.112L82.5378 126.266C81.4733 126.39 80.9947 126.827 80.9966 127.397C80.9986 127.967 81.5097 128.295 82.2297 128.292ZM90.6239 129.809C89.0339 129.814 88.1008 128.873 88.0957 127.373L88.0824 123.428L86.7624 123.432L86.7574 121.932L88.0774 121.928L88.0704 119.858L90.0189 119.416L90.0273 121.921L92.6223 121.912L92.6274 123.412L90.0324 123.421L90.0445 127.021C90.047 127.756 90.3935 128.19 90.9785 128.188C91.5335 128.186 91.9523 127.855 92.1296 127.044L93.0781 128.076C92.7818 129.172 91.8539 129.805 90.6239 129.809ZM95.2445 120.719C94.5245 120.721 94.0279 120.243 94.0255 119.523C94.0231 118.818 94.5165 118.336 95.2365 118.334C95.9715 118.331 96.4681 118.809 96.4704 119.514C96.4729 120.234 95.9795 120.716 95.2445 120.719ZM94.2843 129.557L94.2585 121.907L96.2235 121.9L96.2493 129.55L94.2843 129.557ZM101.588 129.787C99.2926 129.795 97.8022 128.195 97.7938 125.705C97.7855 123.23 99.2651 121.635 101.56 121.627C103.855 121.62 105.345 123.204 105.354 125.679C105.362 128.169 103.883 129.779 101.588 129.787ZM101.582 128.107C102.692 128.103 103.409 127.171 103.404 125.686C103.399 124.216 102.676 123.303 101.566 123.307C100.441 123.311 99.7389 124.228 99.7438 125.698C99.7488 127.183 100.457 128.111 101.582 128.107ZM111.1 121.64C112.525 121.635 113.398 122.547 113.404 124.107L113.422 129.492L111.472 129.499L111.455 124.489C111.452 123.709 111.016 123.245 110.311 123.248C109.366 123.251 108.753 123.913 108.757 124.963L108.772 129.508L106.807 129.515L106.781 121.865L108.431 121.859L108.69 123.013L108.705 123.013C109.182 122.142 110.035 121.644 111.1 121.64ZM117.943 126.222L117.938 124.752L122.603 124.736L122.608 126.206L117.943 126.222ZM128.107 129.743C125.812 129.751 124.247 128.286 124.165 126.141L126.218 125.684C126.253 127.079 126.976 127.977 128.071 127.973C129.016 127.97 129.644 127.323 129.64 126.333C129.637 125.283 128.945 124.61 128.059 124.568L127.489 124.54L127.485 123.28L128.115 123.248C128.82 123.2 129.238 122.614 129.235 121.744C129.232 120.829 128.75 120.231 128.03 120.233C127.205 120.236 126.653 121.033 126.642 122.248L124.511 121.955C124.579 119.93 125.969 118.5 128.039 118.493C129.974 118.486 131.283 119.697 131.289 121.467C131.293 122.562 130.801 123.404 129.932 123.812L129.932 123.842C131.134 124.273 131.827 125.275 131.816 126.535C131.823 128.44 130.327 129.735 128.107 129.743Z" fill="#6F6F6F"/>
</svg>
