<svg width="94" height="72" viewBox="0 0 94 72" fill="none" xmlns="http://www.w3.org/2000/svg">
<path d="M18.852 50.7292C28.7115 58.4749 42.9833 56.7614 50.7291 46.902C58.4749 37.0425 56.7614 22.7707 46.9019 15.0249C37.0425 7.27918 22.7706 8.99267 15.0249 18.8521C7.27911 28.7116 8.99259 42.9834 18.852 50.7292Z" fill="url(#paint0_radial_2314_17)"/>
<path d="M18.852 50.7292C28.7115 58.4749 42.9833 56.7614 50.7291 46.902C58.4749 37.0425 56.7614 22.7707 46.9019 15.0249C37.0425 7.27918 22.7706 8.99267 15.0249 18.8521C7.27911 28.7116 8.99259 42.9834 18.852 50.7292Z" fill="url(#paint1_radial_2314_17)"/>
<path d="M18.852 50.7292C28.7115 58.4749 42.9833 56.7614 50.7291 46.902C58.4749 37.0425 56.7614 22.7707 46.9019 15.0249C37.0425 7.27918 22.7706 8.99267 15.0249 18.8521C7.27911 28.7116 8.99259 42.9834 18.852 50.7292Z" fill="url(#paint2_linear_2314_17)"/>
<path fill-rule="evenodd" clip-rule="evenodd" d="M19.2984 49.4256C28.6166 56.7461 42.105 55.1267 49.4255 45.8085C56.7461 36.4903 55.1266 23.0019 45.8084 15.6814C36.4902 8.36082 23.0019 9.98024 15.6813 19.2984C8.36077 28.6166 9.98019 42.105 19.2984 49.4256ZM50.7843 46.876C42.8742 56.9447 28.2995 58.6945 18.2309 50.7844C8.16221 42.8743 6.41237 28.2996 14.3225 18.2309C22.2326 8.16226 36.8073 6.41242 46.8759 14.3225C56.9446 22.2327 58.6945 36.8073 50.7843 46.876Z" fill="black"/>
<path d="M28 30C28 31.6569 26.6569 33 25 33C23.3431 33 22 31.6569 22 30C22 28.3431 23.3431 27 25 27C26.6569 27 28 28.3431 28 30Z" fill="#F79567"/>
<path d="M48 30.5C48 31.8807 46.8807 33 45.5 33C44.1193 33 43 31.8807 43 30.5C43 29.1193 44.1193 28 45.5 28C46.8807 28 48 29.1193 48 30.5Z" fill="#F79567"/>
<path d="M33.1467 24.7128C33.3948 21.9554 31.6854 19.3818 29.0246 18.5866C25.9436 17.6658 22.6923 19.4396 21.7629 22.5492C21.5756 23.1759 21.494 23.8204 21.5173 24.4617C21.5383 25.0382 22.019 25.4858 22.5908 25.4615C23.1627 25.4372 23.6093 24.9502 23.5883 24.3736L23.587 24.3338C23.5767 23.935 23.6297 23.5342 23.7469 23.1422C24.3454 21.1396 26.44 19.9968 28.4257 20.5903C30.1405 21.1028 31.2424 22.7618 31.0829 24.5353L31.0814 24.5525C31.0396 25.1203 31.4569 25.6165 32.0211 25.6651C32.5911 25.7141 33.095 25.2878 33.1467 24.7128Z" fill="black"/>
<path d="M50.5007 24.6948C50.7488 21.9374 49.0394 19.3638 46.3786 18.5686C43.2976 17.6478 40.0463 19.4216 39.117 22.5312C38.9297 23.1579 38.848 23.8024 38.8714 24.4437C38.8924 25.0202 39.373 25.4678 39.9449 25.4435C40.5167 25.4192 40.9633 24.9322 40.9423 24.3556L40.9411 24.3158C40.9308 23.917 40.9837 23.5162 41.1009 23.1242C41.6994 21.1216 43.794 19.9788 45.7798 20.5723C47.4945 21.0848 48.5964 22.7438 48.4369 24.5173L48.4355 24.5345C48.3936 25.1023 48.8109 25.5985 49.3752 25.6471C49.9451 25.6961 50.449 25.2698 50.5007 24.6948Z" fill="black"/>
<path d="M45.3355 32.0129C44.9417 31.592 44.2791 31.5614 43.8555 31.9444C41.1601 34.3817 37.9803 35.4378 34.6344 34.9646C32.3418 34.6404 30.0981 33.606 27.8941 31.8419C27.4431 31.481 26.784 31.545 26.4219 31.9849C26.0599 32.4248 26.1319 33.0741 26.5829 33.435C29.0723 35.4274 31.6671 36.6237 34.3581 37.0043C38.3453 37.5682 42.1422 36.3071 45.2815 33.4684C45.7051 33.0854 45.7292 32.4338 45.3355 32.0129Z" fill="black"/>
<path d="M78.1995 59.0518C69.9897 65.5015 58.1059 64.0748 51.6561 55.865C45.2064 47.6553 46.6332 35.7714 54.8429 29.3217C63.0527 22.872 74.9365 24.2987 81.3863 32.5085C87.836 40.7182 86.4092 52.6021 78.1995 59.0518Z" fill="url(#paint3_radial_2314_17)"/>
<path d="M78.1995 59.0518C69.9897 65.5015 58.1059 64.0748 51.6561 55.865C45.2064 47.6553 46.6332 35.7714 54.8429 29.3217C63.0527 22.872 74.9365 24.2987 81.3863 32.5085C87.836 40.7182 86.4092 52.6021 78.1995 59.0518Z" fill="url(#paint4_radial_2314_17)"/>
<path d="M78.1995 59.0518C69.9897 65.5015 58.1059 64.0748 51.6561 55.865C45.2064 47.6553 46.6332 35.7714 54.8429 29.3217C63.0527 22.872 74.9365 24.2987 81.3863 32.5085C87.836 40.7182 86.4092 52.6021 78.1995 59.0518Z" fill="url(#paint5_linear_2314_17)"/>
<path fill-rule="evenodd" clip-rule="evenodd" d="M77.9297 58.2969C70.1706 64.3926 58.9392 63.0441 52.8435 55.2851C46.7479 47.526 48.0963 36.2945 55.8554 30.1989C63.6144 24.1032 74.8459 25.4517 80.9416 33.2107C87.0372 40.9698 85.6888 52.2013 77.9297 58.2969ZM51.7121 56.174C58.2986 64.5579 70.4347 66.015 78.8186 59.4284C87.2026 52.8418 88.6596 40.7058 82.073 32.3218C75.4865 23.9379 63.3504 22.4808 54.9665 29.0674C46.5825 35.654 45.1255 47.79 51.7121 56.174Z" fill="black"/>
<path d="M76 42.5C76 43.8807 74.8807 45 73.5 45C72.1193 45 71 43.8807 71 42.5C71 41.1193 72.1193 40 73.5 40C74.8807 40 76 41.1193 76 42.5Z" fill="#F79567"/>
<path d="M57 43C57 44.1046 56.1046 45 55 45C53.8954 45 53 44.1046 53 43C53 41.8954 53.8954 41 55 41C56.1046 41 57 41.8954 57 43Z" fill="#F79567"/>
<path d="M66.3985 37.7192C66.1919 35.4231 67.6153 33.2802 69.8309 32.618C72.3963 31.8513 75.1036 33.3283 75.8775 35.9176C76.0334 36.4395 76.1014 36.9761 76.082 37.5101C76.0645 37.9901 75.6643 38.3629 75.1881 38.3426C74.7119 38.3224 74.3401 37.9168 74.3576 37.4368L74.3586 37.4036C74.3672 37.0715 74.3231 36.7378 74.2255 36.4114C73.7271 34.7439 71.983 33.7923 70.3295 34.2864C68.9017 34.7132 67.9841 36.0946 68.117 37.5714L68.1182 37.5857C68.153 38.0585 67.8055 38.4717 67.3357 38.5121C66.8611 38.553 66.4415 38.198 66.3985 37.7192Z" fill="black"/>
<path d="M51.9481 37.7042C51.7416 35.4081 53.165 33.2652 55.3806 32.603C57.946 31.8363 60.6533 33.3133 61.4272 35.9026C61.5831 36.4245 61.6511 36.9611 61.6317 37.4951C61.6142 37.9751 61.214 38.3479 60.7378 38.3276C60.2616 38.3074 59.8898 37.9018 59.9072 37.4218L59.9083 37.3886C59.9168 37.0565 59.8728 36.7228 59.7752 36.3964C59.2768 34.7289 57.5327 33.7773 55.8792 34.2715C54.4514 34.6982 53.5338 36.0796 53.6667 37.5564L53.6678 37.5707C53.7027 38.0435 53.3552 38.4567 52.8854 38.4971C52.4108 38.538 51.9912 38.183 51.9481 37.7042Z" fill="black"/>
<path d="M56.2492 43.7978C56.577 43.4474 57.1288 43.4218 57.4815 43.7407C59.7259 45.7702 62.3737 46.6497 65.1597 46.2557C67.0687 45.9857 68.937 45.1243 70.7722 43.6554C71.1477 43.3549 71.6965 43.4082 71.998 43.7745C72.2995 44.1408 72.2395 44.6814 71.864 44.982C69.7912 46.641 67.6305 47.6371 65.3898 47.9541C62.0697 48.4236 58.9081 47.3735 56.2941 45.0098C55.9414 44.6909 55.9213 44.1483 56.2492 43.7978Z" fill="black"/>
<defs>
<radialGradient id="paint0_radial_2314_17" cx="0" cy="0" r="1" gradientUnits="userSpaceOnUse" gradientTransform="translate(3198.65 -395.834) rotate(-51.8462) scale(2548.11 2714.3)">
<stop stop-color="#D27C12" stop-opacity="0.186"/>
<stop offset="0.82343" stop-color="#D27C12" stop-opacity="0"/>
<stop offset="1" stop-color="#D27C12" stop-opacity="0.176"/>
</radialGradient>
<radialGradient id="paint1_radial_2314_17" cx="0" cy="0" r="1" gradientUnits="userSpaceOnUse" gradientTransform="translate(1298.14 2060.45) rotate(38.1538) scale(2709.57)">
<stop stop-color="#FDE990"/>
<stop offset="1" stop-color="#FACE57"/>
</radialGradient>
<linearGradient id="paint2_linear_2314_17" x1="32.6636" y1="4.03845" x2="32.6636" y2="61.5385" gradientUnits="userSpaceOnUse">
<stop offset="0.68" stop-color="white" stop-opacity="0"/>
<stop offset="0.875" stop-color="white"/>
</linearGradient>
<radialGradient id="paint3_radial_2314_17" cx="0" cy="0" r="1" gradientUnits="userSpaceOnUse" gradientTransform="translate(-2569.55 -312.791) rotate(-128.154) scale(2121.76 2260.14)">
<stop stop-color="#D27C12" stop-opacity="0.186"/>
<stop offset="0.82343" stop-color="#D27C12" stop-opacity="0"/>
<stop offset="1" stop-color="#D27C12" stop-opacity="0.176"/>
</radialGradient>
<radialGradient id="paint4_radial_2314_17" cx="0" cy="0" r="1" gradientUnits="userSpaceOnUse" gradientTransform="translate(-987.039 1732.5) rotate(141.846) scale(2256.2)">
<stop stop-color="#FDE990"/>
<stop offset="1" stop-color="#FACE57"/>
</radialGradient>
<linearGradient id="paint5_linear_2314_17" x1="66.6989" y1="20.1735" x2="66.6989" y2="68.0525" gradientUnits="userSpaceOnUse">
<stop offset="0.68" stop-color="white" stop-opacity="0"/>
<stop offset="0.875" stop-color="white"/>
</linearGradient>
</defs>
</svg>
